<svg xmlns="http://www.w3.org/2000/svg" viewBox="0 0 140 56">
<!-- SVG created with Arrow, by QuiverAI (https://quiver.ai) -->
  <style type="text/css">.cls-0 {fill:#F1F5F9;}
.cls-1 {fill:#26F27B;}
.cls-2 {fill:#06090E;}</style>
  <path class="cls-0" d="m23.1 0.4-21.2 10.9v17.7c0 4.1 1.7 9.4 5.1 13.5 3.4 4.4 8.9 8.1 16 11.6v0.9l0.1-0.1 0.1 0.1v-0.9c7.1-3.5 12.6-6.8 16.7-11.6 2.8-3.6 5-8.5 5.1-13.5v-17.7l-21.9-10.9z"/>
  <path class="cls-1" d="m23.1 0.4-0.1 5 17.7 8.7 4.2-2.7v-0.1z"/>
  <path class="cls-2" d="m23 5.4-17.2 8.7v15.9c0.1 1.5 0.8 4.4 1.3 4.3l6.4-3v-5.5l-1.4-0.8v-7l3.8-1.4v4.2l4.3-1.6v-4.2l2.7-1 2.8 1v4.3l4 1.5v-4.1l4.2 1.4v6.8l-1.5 0.8-0.1 1.2-9.2-3.6v7.1c0 0.6-0.4 0.8-0.5 1.4-0.1 0.8 0.5 1.3 0.5 1.5v16.5c6-3.1 9.6-5.6 12.5-8.7 2.8-3.2 5-7.3 5.1-11.8v-15.2l-17.7-8.7z"/>
  <path class="cls-0" d="m65.1 28.2c0.8 0.5 1.1 1.2 1.1 2.1v1.8c0 1.3-1 2.4-2.4 2.4h-8.2v-12.6h8.1c1.3 0 2.4 1.1 2.4 2.5v2.1c0 0.8-0.3 1.3-1 1.7zm-7-3.9v2.7h4.6c0.6 0 0.9-0.2 0.9-0.8v-1c0-0.6-0.2-0.9-0.9-0.9h-4.6zm5.6 5.9c0-0.6-0.2-0.8-0.9-0.8h-4.7v2.9h4.7c0.6 0 0.9-0.3 0.9-0.7v-1.4zm13.2 1.7h-5.3l-1 2.6h-2.7l4.9-12.5h2.8l5 12.5h-2.7l-1-2.6zm-1-2.4-1.8-4.6-1.8 4.6h3.6zm6.8 1.7h2.4v0.3c0 0.6 0.2 0.8 0.8 0.8h4c0.6 0 0.9-0.2 0.9-0.8v-1.3c0-0.6-0.3-0.8-0.9-0.8h-4.4c-1.5 0-2.8-1-2.8-2.5v-2.4c0-1.3 1.2-2.5 2.3-2.5h5.8c1.2 0 2.4 1.2 2.4 2.4v1l-2.4 0.1v-0.4c0-0.6-0.3-0.8-0.8-0.8h-4c-0.6 0-0.7 0.3-0.7 0.8v1.1c0 0.6 0.3 0.8 0.7 0.8h4.5c1.9 0 2.9 1.4 2.9 2.8v2.3c0 1.3-1 2.4-2.5 2.4h-5.8c-1.5 0-2.4-1.1-2.4-2.4v-0.9zm23.7-7h-4v10.3h-2.7v-10.3h-4v-2.3h10.7v2.3zm2.3-2.3h2.5v12.6h-2.5v-12.6zm16.5 2.8v7.2c0 1.4-1.1 2.6-2.5 2.6h-5.8c-1.4 0-2.7-1.2-2.7-2.6v-7.2c0-1.5 1.2-2.8 2.7-2.8h5.8c1.3 0 2.5 1.3 2.5 2.8zm-2.6 0.4c0-0.5-0.3-0.8-0.7-0.8h-4.2c-0.5 0-0.8 0.3-0.8 0.8v6.4c0 0.5 0.3 0.8 0.8 0.8h4.1c0.5 0 0.8-0.2 0.8-0.7v-6.5zm15.8-3.2v12.6h-2.1l-6-8.3h-0.1v8.3h-2.3v-12.6h2.4l5.9 8.4v-8.4h2.2z"/>
</svg>