<svg xmlns="http://www.w3.org/2000/svg" viewBox="-4.25 0 55.5 55.5" fill="none">
  <title>Bastion</title>
  <path
    fill="#26F27B"
    d="m23.1 0.4-21.2 10.9v17.7c0 4.1 1.7 9.4 5.1 13.5 3.4 4.4 8.9 8.1 16 11.6v0.9l0.1-0.1 0.1 0.1v-0.9c7.1-3.5 12.6-6.8 16.7-11.6 2.8-3.6 5-8.5 5.1-13.5v-17.7l-21.9-10.9z"
  />
  <path
    fill="#06090E"
    d="m23 5.4-17.2 8.7v15.9c0.1 1.5 0.8 4.4 1.3 4.3l6.4-3v-5.5l-1.4-0.8v-7l3.8-1.4v4.2l4.3-1.6v-4.2l2.7-1 2.8 1v4.3l4 1.5v-4.1l4.2 1.4v6.8l-1.5 0.8-0.1 1.2-9.2-3.6v7.1c0 0.6-0.4 0.8-0.5 1.4-0.1 0.8 0.5 1.3 0.5 1.5v16.5c6-3.1 9.6-5.6 12.5-8.7 2.8-3.2 5-7.3 5.1-11.8v-15.2l-17.7-8.7z"
  />
</svg>
